<?xml version="1.0" standalone="no"?>
<!DOCTYPE svg PUBLIC "-//W3C//DTD SVG 20010904//EN"
 "http://www.w3.org/TR/2001/REC-SVG-20010904/DTD/svg10.dtd">
<svg version="1.0" xmlns="http://www.w3.org/2000/svg"
 width="728.000000pt" height="728.000000pt" viewBox="0 0 728.000000 728.000000"
 preserveAspectRatio="xMidYMid meet">
<metadata>
Created by potrace 1.11, written by Peter Selinger 2001-2013
</metadata>
<g transform="translate(0.000000,728.000000) scale(0.100000,-0.100000)"
fill="#000000" stroke="none">
<path d="M3240 7254 c-1321 -144 -2448 -992 -2955 -2224 -118 -286 -195 -584
-242 -930 -22 -167 -25 -665 -5 -830 21 -172 52 -347 84 -480 324 -1334 1377
-2368 2718 -2668 300 -67 502 -86 864 -79 348 6 549 34 861 117 824 219 1572
754 2045 1460 274 410 448 823 546 1295 84 407 96 887 34 1298 -231 1518
-1402 2725 -2912 3001 -224 42 -404 56 -670 55 -134 -1 -299 -7 -368 -15z
m655 -544 c525 -49 1011 -220 1440 -505 971 -648 1495 -1782 1350 -2924 -112
-883 -605 -1678 -1350 -2176 -382 -255 -794 -412 -1275 -488 -115 -18 -178
-21 -435 -21 -257 0 -320 3 -435 21 -671 105 -1239 384 -1711 840 -502 485
-817 1113 -915 1823 -22 157 -25 566 -6 720 42 335 136 660 278 959 407 854
1186 1478 2104 1686 102 23 348 61 440 68 107 8 414 6 515 -3z"/>
<path d="M2880 6574 c-30 -8 -102 -28 -159 -46 l-103 -32 7 -200 6 -201 -158
-172 c-87 -95 -252 -276 -368 -402 -143 -156 -215 -228 -225 -224 -8 3 -40 15
-70 26 -45 17 -77 21 -175 21 -107 0 -128 -3 -189 -27 -171 -67 -297 -206
-341 -374 -19 -74 -19 -232 0 -308 39 -154 148 -290 285 -357 214 -104 449
-70 621 90 71 65 113 130 147 224 22 63 26 90 26 193 0 100 -3 130 -22 183
l-23 64 45 51 c24 29 82 92 129 142 l84 90 58 -56 58 -56 -14 -39 c-19 -58
-14 -180 11 -247 27 -72 93 -140 168 -175 75 -35 183 -37 254 -5 62 28 134 96
166 158 25 45 27 60 27 160 0 103 -2 113 -30 164 -77 139 -244 205 -391 155
l-47 -16 -58 59 -58 58 211 228 211 228 -2 321 c-1 177 -4 325 -7 330 -6 10
-7 10 -74 -8z m-14 -1424 c58 -29 82 -77 62 -128 -39 -103 -187 -108 -234 -8
-34 71 22 146 115 155 8 0 34 -8 57 -19z m-1121 -194 c23 -12 54 -43 73 -71
31 -45 34 -55 30 -108 -10 -134 -138 -222 -270 -183 -61 18 -112 62 -139 121
-24 51 -23 90 1 140 33 69 71 103 137 121 58 16 115 9 168 -20z"/>
<path d="M4318 6493 c-2 -49 -5 -194 -6 -324 l-3 -236 211 -229 210 -229 -58
-58 -59 -59 -47 16 c-148 50 -308 -13 -385 -154 -34 -61 -36 -71 -36 -155 0
-124 22 -183 94 -256 120 -120 303 -127 435 -16 92 76 139 242 103 359 l-14
46 58 58 c36 35 62 54 67 49 5 -6 62 -68 127 -138 l118 -128 -23 -77 c-18 -58
-23 -101 -23 -172 1 -172 51 -298 164 -411 104 -105 233 -159 383 -159 152 0
278 52 387 160 104 104 153 216 165 374 20 279 -173 534 -444 587 -89 17 -212
7 -294 -24 l-67 -26 -323 352 c-178 193 -342 372 -366 399 l-44 48 2 199 1
199 -93 30 c-118 39 -202 62 -221 62 -12 0 -16 -17 -19 -87z m184 -1333 c46
-13 88 -61 88 -102 0 -92 -115 -151 -194 -99 -98 65 -60 189 64 210 3 1 22 -4
42 -9z m1238 -204 c26 -13 57 -40 75 -65 26 -37 30 -52 30 -106 0 -54 -4 -69
-30 -107 -67 -95 -194 -122 -292 -62 -98 61 -130 185 -70 271 68 96 178 123
287 69z"/>
<path d="M3428 4474 c-75 -18 -180 -72 -246 -127 -279 -232 -296 -684 -35
-939 65 -64 152 -119 224 -143 l49 -17 2 -1293 c2 -711 7 -1297 11 -1302 5 -4
79 -8 165 -8 l157 0 3 1305 2 1305 48 17 c165 59 318 232 368 418 27 100 25
265 -4 360 -51 165 -171 306 -324 379 -46 21 -107 44 -136 50 -71 15 -214 12
-284 -5z m268 -373 c124 -55 190 -188 153 -311 -29 -96 -134 -182 -240 -196
-98 -13 -216 47 -272 138 -40 64 -48 156 -20 219 66 149 231 215 379 150z"/>
<path d="M2070 4252 c-262 -69 -395 -330 -309 -609 33 -105 147 -229 243 -264
28 -10 35 -19 40 -48 3 -20 6 -211 7 -426 1 -214 4 -460 8 -547 l6 -156 298
-332 298 -332 -7 -368 -7 -367 74 -23 c41 -12 104 -31 142 -40 l67 -18 4 21
c3 12 7 227 10 478 l6 456 -296 329 c-163 181 -300 338 -304 349 -4 11 -9 244
-11 517 l-4 497 54 27 c29 15 78 52 107 82 216 219 155 607 -116 740 -109 53
-198 63 -310 34z m208 -338 c92 -71 70 -196 -42 -239 -52 -20 -94 -15 -144 15
-41 25 -76 98 -67 140 23 104 164 151 253 84z"/>
<path d="M4921 4259 c-205 -40 -361 -234 -361 -448 0 -175 97 -343 238 -415
l52 -26 -1 -383 c-1 -210 -4 -441 -8 -513 l-6 -132 -299 -332 -299 -333 8
-481 c4 -265 8 -483 10 -485 5 -4 175 37 230 56 21 7 43 19 47 26 4 7 5 179 2
382 l-5 370 286 315 c157 173 292 324 300 335 11 16 15 128 21 593 l7 573 54
25 c84 40 166 123 210 212 l38 76 0 131 c0 131 0 131 -37 206 -93 189 -287
288 -487 248z m159 -331 c112 -57 108 -193 -6 -248 -55 -27 -112 -21 -161 16
-78 59 -83 144 -11 211 50 47 111 54 178 21z"/>
</g>
</svg>
